<svg width="122" height="122" viewBox="0 0 122 122" fill="none" xmlns="http://www.w3.org/2000/svg">
<g filter="url(#filter0_d_1177_19544)">
<rect x="25" y="20" width="72" height="72" rx="36" fill="white"/>
<rect x="25.5" y="20.5" width="71" height="71" rx="35.5" stroke="#303133"/>
</g>
<path d="M72.5431 46.0309C72.5034 46.1364 72.4664 46.2419 72.4227 46.3461C72.153 46.9976 71.7099 47.5106 71.144 47.9234C70.5859 48.3309 69.9683 48.6289 69.3283 48.8821C68.5534 49.1894 67.7533 49.4149 66.9426 49.6048C66.8911 49.6167 66.8448 49.6338 66.821 49.5547C66.7311 49.2422 66.4984 49.0628 66.218 48.9309C66.14 48.894 66.0593 48.8624 65.9521 48.8162C66.21 48.7713 66.4375 48.7331 66.6636 48.6922C67.5615 48.5261 68.4449 48.3098 69.2873 47.9511C69.8321 47.719 70.3465 47.4328 70.7882 47.0319C71.2325 46.6296 71.5526 46.1522 71.706 45.568C72.0287 44.3376 71.4957 43.094 70.3796 42.4834C70.213 42.3924 70.0424 42.3132 69.8692 42.2368C69.8506 42.2288 69.8255 42.2288 69.8149 42.1866C69.9551 42.18 70.094 42.1734 70.2315 42.1906C71.4031 42.3423 72.1424 43.0069 72.5179 44.1042C72.5219 44.1147 72.5338 44.1226 72.5418 44.1319C72.5431 44.7649 72.5431 45.3979 72.5431 46.0309Z" fill="#303133"/>
<path d="M58.6162 77.355C58.5725 77.289 58.5355 77.2349 58.4998 77.1808C58.1546 76.6441 57.8121 76.1073 57.5344 75.5311C57.2515 74.9468 57.0306 74.3428 56.9076 73.7045C56.7172 72.7115 56.7899 71.7382 57.1139 70.7821C57.3956 69.9486 57.836 69.2009 58.3715 68.5072C59.0804 67.5893 59.9121 66.7941 60.822 66.0793C61.5559 65.503 62.3084 64.9504 63.0475 64.382C64.1081 63.5644 65.1383 62.7124 66.0719 61.7484C66.8654 60.9294 67.5689 60.0432 68.1282 59.0475C68.6797 58.0649 69.0566 57.0219 69.2695 55.9167C69.4269 55.1003 69.4652 54.2761 69.4163 53.4505C69.3554 52.4337 69.1716 51.438 68.8754 50.4635C68.8265 50.3039 68.7762 50.1443 68.722 49.9874C68.7008 49.9254 68.7075 49.8924 68.7749 49.8687C69.1201 49.7487 69.4612 49.6195 69.7958 49.4717C69.8646 49.4414 69.8897 49.4797 69.9188 49.5284C70.0934 49.8186 70.2573 50.114 70.4068 50.4186C70.8723 51.3682 71.1923 52.3652 71.3721 53.4043C71.4964 54.1205 71.5533 54.8419 71.5308 55.5685C71.4819 57.1721 71.1129 58.6967 70.3856 60.1315C69.8791 61.1325 69.2193 62.0213 68.4258 62.8153C67.7117 63.5287 66.9421 64.1789 66.1473 64.8C65.2256 65.5214 64.2747 66.2046 63.3411 66.9128C62.5067 67.5471 61.6868 68.1986 60.9304 68.9253C60.3234 69.5094 59.764 70.1346 59.3025 70.8428C58.8529 71.5338 58.513 72.2736 58.3292 73.0794C58.1864 73.7085 58.1335 74.3442 58.1718 74.989C58.2181 75.7658 58.3782 76.5189 58.6109 77.2587C58.6175 77.285 58.6347 77.3088 58.6162 77.355Z" fill="#303133"/>
<path d="M60.2041 42.2344C60.4065 42.4282 60.6021 42.6115 60.7926 42.8001C61.5384 43.5373 62.238 44.3141 62.837 45.1766C63.1358 45.6065 63.4057 46.0549 63.6344 46.5257C63.7019 46.6642 63.7006 46.6642 63.5524 46.6959C62.956 46.8238 62.3795 47.0097 61.8412 47.3038C61.2501 47.6256 60.7516 48.0476 60.4024 48.6292C60.1618 49.0314 60.0256 49.468 59.9766 49.9335C59.9211 50.4557 59.9819 50.9674 60.1102 51.4738C60.1684 51.6993 60.2729 51.909 60.3522 52.1279C60.4196 52.3139 60.4845 52.4998 60.5202 52.695C60.5387 52.7913 60.5426 52.8876 60.5334 52.9838C60.5162 53.1698 60.3972 53.2885 60.2107 53.3096C60.1842 53.3122 60.1579 53.3122 60.1314 53.3135C59.9766 53.328 59.8589 53.2766 59.7452 53.1632C58.8936 52.3178 58.3567 51.3024 58.0777 50.1445C57.9943 49.7977 57.9428 49.4469 57.8952 49.0947C57.8806 48.9879 57.9097 48.9206 57.997 48.8508C58.7997 48.219 59.3525 47.4172 59.6196 46.4295C59.7585 45.9204 59.7968 45.4021 59.7518 44.8759C59.7055 44.3458 59.5759 43.8393 59.3789 43.3461C59.3194 43.1971 59.3234 43.234 59.4331 43.1417C59.7016 42.9149 59.9184 42.6458 60.1168 42.3597C60.1433 42.3227 60.1684 42.2871 60.2041 42.2344Z" fill="#303133"/>
<path d="M68.7124 53.5872C68.719 55.1223 68.3078 56.4741 67.5421 57.7243C67.1612 58.3441 66.7129 58.9138 66.2157 59.444C66.1668 59.4967 66.1125 59.5376 66.0451 59.5613C65.2451 59.8396 64.5204 59.7091 63.8724 59.1644C63.8036 59.1063 63.8049 59.1024 63.8724 59.0325C64.2122 58.6764 64.5547 58.3217 64.8681 57.9419C65.2583 57.4684 65.6126 56.9726 65.8375 56.3963C65.9829 56.0231 66.0557 55.6393 66.0173 55.2357C65.9975 55.0287 65.9459 54.8295 65.8732 54.6356C65.8256 54.5104 65.8243 54.5104 65.9486 54.4444C66.3254 54.2414 66.6507 53.9776 66.9047 53.6294C67.1969 53.2285 67.3543 52.7775 67.4164 52.2908C67.4958 51.6736 67.4296 51.0644 67.2988 50.4603C67.2935 50.4392 67.2895 50.4169 67.2842 50.3958C67.2736 50.3496 67.2868 50.3193 67.3357 50.306C67.5474 50.2467 67.7603 50.19 67.9705 50.1267C68.034 50.1069 68.0459 50.1425 68.0618 50.1874C68.1755 50.4973 68.2734 50.8111 68.3606 51.129C68.5101 51.6763 68.6198 52.2315 68.6767 52.796C68.7005 53.0808 68.719 53.3657 68.7124 53.5872Z" fill="#303133"/>
<path d="M60.7123 51.3512C60.6447 51.1403 60.6143 50.945 60.5971 50.7499C60.5139 49.7714 60.8246 48.9431 61.5612 48.2824C62.0729 47.8235 62.6786 47.5373 63.3346 47.3527C63.9032 47.1918 64.4864 47.0981 65.0682 47.0071C65.8114 46.8898 66.5573 46.783 67.2859 46.5851C67.7501 46.4599 68.205 46.3095 68.6295 46.0774C68.8146 45.9759 68.9905 45.8598 69.1492 45.7174C69.5512 45.3521 69.6649 44.9024 69.5393 44.3867C69.4494 44.0161 69.2524 43.7181 68.9045 43.5374C68.6335 43.3963 68.3465 43.391 68.0556 43.4609C67.8559 43.5084 67.6734 43.5941 67.5041 43.7062C67.4684 43.73 67.4313 43.7537 67.3705 43.7933C67.3811 43.7062 67.3851 43.639 67.3983 43.573C67.4989 43.0758 67.7977 42.7541 68.2804 42.5998C68.9825 42.3769 70.0669 42.5971 70.584 43.5295C70.8458 44.0029 70.9345 44.5094 70.8643 45.0435C70.7639 45.8057 70.3592 46.3781 69.7509 46.8251C69.255 47.1892 68.6969 47.4252 68.115 47.6112C67.4763 47.8156 66.8191 47.9435 66.1605 48.0595C65.5152 48.1729 64.8633 48.2547 64.2232 48.4051C63.5448 48.5647 62.9008 48.8073 62.3202 49.199C61.6075 49.679 61.1089 50.3278 60.7995 51.1244C60.7731 51.1944 60.7466 51.2629 60.7123 51.3512Z" fill="#303133"/>
<path d="M56.4159 47.5153C56.5799 47.3333 56.7584 47.1565 56.9197 46.964C57.2279 46.5948 57.4976 46.2004 57.6934 45.7586C58.0464 44.9621 58.0848 44.1458 57.8534 43.3123C57.8177 43.1857 57.7754 43.0604 57.733 42.9364C57.696 42.8257 57.6934 42.8243 57.8032 42.794C58.184 42.6898 58.5 42.4841 58.7605 42.19C58.9007 42.0317 59.0197 41.8577 59.1162 41.6691C59.3807 41.1455 59.4892 40.5837 59.5315 40.0061C59.5448 39.8201 59.5236 39.8531 59.3874 39.8993C59.07 40.0074 58.7394 40.0641 58.4101 40.1248C58.1416 40.1736 57.8719 40.2171 57.6074 40.283C57.4381 40.3252 57.2821 40.3951 57.1591 40.5217C57.0057 40.68 56.9528 40.8646 57.0136 41.0783C57.0784 41.3104 57.2213 41.4726 57.458 41.5398C57.499 41.5517 57.5439 41.5609 57.5915 41.5359C57.5823 41.5029 57.5743 41.4699 57.5651 41.437C57.5109 41.2167 57.5942 41.0479 57.7886 40.9807C58.0028 40.9068 58.2382 41.0057 58.3215 41.2035C58.3519 41.2774 58.3652 41.3552 58.3585 41.4357C58.3281 41.8049 58.0583 42.1056 57.696 42.1795C57.3125 42.2586 56.97 42.1623 56.6645 41.9289C56.3776 41.71 56.1885 41.4251 56.121 41.0677C56.0417 40.6497 56.1871 40.3081 56.4873 40.0219C56.8021 39.7212 57.1948 39.5841 57.6153 39.5194C57.9367 39.4707 58.2607 39.4364 58.5847 39.3928C59.0277 39.3335 59.4522 39.2003 59.8674 39.0381C60.0287 38.9761 60.0261 38.9748 60.0605 39.1489C60.1437 39.5735 60.1835 40.0008 60.161 40.4334C60.1279 41.0835 59.9811 41.702 59.6347 42.2625C59.435 42.5843 59.181 42.8547 58.8703 43.0723C58.7672 43.1448 58.7672 43.1448 58.8042 43.2595C58.9457 43.6908 59.0449 44.1299 59.0885 44.5836C59.1679 45.4065 59.021 46.1846 58.6203 46.9112C58.3189 47.4559 57.9155 47.9175 57.4527 48.3316C57.4104 48.3685 57.3799 48.3844 57.3323 48.3369C57.0533 48.0678 56.7518 47.8239 56.4582 47.572C56.4397 47.5575 56.4186 47.5469 56.4159 47.5153Z" fill="#303133"/>
<path d="M61.1107 53.4688C61.1888 53.6481 61.2734 53.8222 61.3845 53.9804C61.6172 54.3128 61.9201 54.5502 62.3221 54.6425C62.6461 54.7164 62.9701 54.6939 63.2901 54.6161C63.6617 54.5252 64.0055 54.3708 64.3335 54.1783C64.3745 54.1546 64.4115 54.1216 64.4684 54.1097C64.4763 54.1875 64.4459 54.2548 64.4234 54.3233C64.2911 54.7045 64.0465 55.0052 63.7371 55.2571C63.253 55.65 62.6897 55.8822 62.0933 56.0444C61.2893 56.2646 60.4707 56.3042 59.6429 56.2422C59.0016 56.1948 58.3655 56.0971 57.7294 56.0035C57.1885 55.9244 56.6476 55.8532 56.1028 55.8096C55.9137 55.7952 55.7259 55.7675 55.5381 55.745C55.3966 55.7278 55.2565 55.7331 55.1176 55.7622C54.951 55.7965 54.8201 55.8887 54.7143 56.0193C54.5357 56.2382 54.43 56.4928 54.344 56.7565C54.3242 56.8172 54.3136 56.8818 54.2739 56.9504C54.0332 56.7565 53.8785 56.5205 53.815 56.2264C53.6749 55.5683 54.1972 54.9761 54.7579 54.864C55.0885 54.7981 55.4072 54.8535 55.7219 54.9484C55.9785 55.0263 56.2337 55.1093 56.4982 55.1608C57.1475 55.2848 57.777 55.2307 58.3879 54.9735C59.3202 54.5806 60.2075 54.1071 61.0261 53.5097C61.0433 53.4965 61.0618 53.4846 61.0803 53.4728C61.0857 53.4687 61.0909 53.4701 61.1107 53.4688Z" fill="#303133"/>
<path d="M55.7363 72.1225C55.645 71.9234 55.5842 71.7124 55.5207 71.504C55.3964 71.0965 55.288 70.685 55.2086 70.2657C55.0526 69.4361 55.0354 68.6079 55.247 67.7837C55.4017 67.1783 55.6636 66.6192 55.9981 66.093C56.2798 65.6499 56.6064 65.2424 56.9595 64.8534C57.4753 64.2863 58.0413 63.7706 58.6244 63.2734C58.7024 63.2062 58.7051 63.2062 58.758 63.2708C59.1428 63.7456 59.636 64.0489 60.2312 64.1887C60.2484 64.1926 60.2656 64.1979 60.2854 64.2032C60.2827 64.2573 60.2338 64.273 60.2034 64.2981C59.7789 64.641 59.3583 64.9879 58.951 65.3505C58.2132 66.0086 57.5242 66.7102 56.9807 67.5424C56.4517 68.3508 56.1079 69.2331 55.9267 70.18C55.8037 70.8222 55.7561 71.4684 55.7363 72.1225Z" fill="#303133"/>
<path d="M52.207 46.5111C52.4358 46.5019 52.6593 46.4926 52.8841 46.4847C53.1975 46.4742 53.5083 46.4478 53.8138 46.3739C54.188 46.2829 54.5292 46.13 54.7989 45.8438C55.0449 45.584 55.1732 45.2728 55.1957 44.9193C55.2393 44.2362 54.9973 43.6454 54.5993 43.106C54.4578 42.9134 54.2898 42.7473 54.0994 42.6009C54.0703 42.5785 54.0306 42.5626 54.0134 42.5165C54.4908 42.411 54.8704 42.1433 55.2102 41.8096C55.2539 41.7661 55.2935 41.7199 55.3332 41.6725C55.4086 41.5828 55.4086 41.5815 55.5117 41.65C55.7881 41.8333 56.0394 42.0457 56.2615 42.2936C56.649 42.7248 56.9108 43.2207 57.0166 43.7931C57.1357 44.434 57.0523 45.0525 56.7958 45.6486C56.5591 46.1972 56.2047 46.6548 55.7127 47.0004C55.6916 47.0149 55.6665 47.0268 55.6466 47.0439C55.6017 47.0835 55.5633 47.0729 55.517 47.0439C55.361 46.9437 55.1983 46.8566 55.0251 46.7894C54.8228 46.7116 54.6151 46.6562 54.3956 46.6601C53.9486 46.6667 53.6617 46.937 53.6313 47.3841C53.622 47.52 53.6313 47.6558 53.6551 47.7903C53.6696 47.8734 53.6617 47.8853 53.5797 47.8906C53.1856 47.9196 52.8471 47.8141 52.6051 47.4831C52.4556 47.2773 52.3631 47.0452 52.2851 46.8065C52.2546 46.7102 52.2084 46.6192 52.207 46.5111Z" fill="#303133"/>
<path d="M58.7996 52.7526C58.6594 52.8027 58.5126 52.8265 58.3671 52.8568C57.9267 52.9505 57.4824 53.0124 57.0328 53.0296C56.1587 53.0613 55.3322 52.9017 54.593 52.4071C54.1711 52.1262 53.8207 51.7702 53.502 51.3798C53.2745 51.1002 53.0643 50.8074 52.8646 50.5067C52.694 50.2509 52.4678 50.0702 52.1597 50.0149C51.8609 49.9608 51.5818 50.0267 51.3213 50.1758C51.2182 50.2351 51.1177 50.301 51.0317 50.3814C50.9709 50.4382 50.9114 50.4487 50.84 50.4171C50.5953 50.309 50.4419 50.115 50.3943 49.8632C50.3507 49.6271 50.4604 49.4267 50.6456 49.2737C50.7844 49.1589 50.9497 49.097 51.1203 49.0495C51.3464 48.9875 51.5739 48.9466 51.8106 48.973C52.0989 49.0046 52.3396 49.1299 52.5512 49.3185C52.7099 49.4583 52.8461 49.6205 52.977 49.7867C53.2375 50.1151 53.5152 50.425 53.8683 50.6598C54.4885 51.0699 55.1629 51.2914 55.9127 51.2479C56.3147 51.2242 56.7035 51.1226 57.0844 50.9986C57.2351 50.9498 57.3846 50.8971 57.534 50.847C57.6279 50.8153 57.6292 50.8153 57.6662 50.909C57.7919 51.2334 57.9321 51.5499 58.1145 51.8467C58.2957 52.1394 58.5126 52.4045 58.7387 52.663C58.7559 52.6828 58.7744 52.7025 58.7903 52.7223C58.7969 52.7276 58.7955 52.7382 58.7996 52.7526Z" fill="#303133"/>
<path d="M67.5722 45.8904C67.403 45.9762 67.227 46.0315 67.0499 46.0803C66.5103 46.232 65.9602 46.3296 65.4061 46.4034C65.1614 46.4364 64.9168 46.4668 64.6735 46.501C64.6047 46.5103 64.5624 46.5024 64.5307 46.4285C64.2331 45.7572 63.8153 45.1598 63.3603 44.5861C62.5762 43.5984 61.6954 42.7029 60.7472 41.8708C60.6957 41.8259 60.6071 41.793 60.6084 41.7244C60.6097 41.669 60.6745 41.6149 60.7116 41.5608C60.7896 41.4461 60.7909 41.4461 60.9139 41.4989C61.8885 41.9248 62.8168 42.4365 63.7187 42.9957C64.8202 43.6788 65.8689 44.4332 66.87 45.2548C67.0803 45.4275 67.2852 45.6082 67.4915 45.7863C67.518 45.8126 67.555 45.8324 67.5722 45.8904Z" fill="#303133"/>
<path d="M64.1702 50.3774C64.0644 50.3867 63.997 50.4301 63.9255 50.4605C63.5552 50.6227 63.214 50.8297 62.9363 51.1265C62.4497 51.6461 62.3439 52.2435 62.5674 52.9081C62.6798 53.2418 62.8676 53.532 63.0845 53.8063C63.1003 53.8261 63.1255 53.8405 63.1308 53.8801C62.9972 53.9276 62.8583 53.9184 62.7222 53.8999C62.3439 53.8498 62.0437 53.6625 61.8203 53.3579C61.4936 52.9135 61.372 52.4084 61.4235 51.865C61.487 51.1818 61.8255 50.6372 62.3201 50.1835C62.8702 49.6785 63.5195 49.358 64.2521 49.209C64.5616 49.1457 64.8737 49.1377 65.1818 49.2222C65.8272 49.3989 66.2371 50.0649 66.0903 50.6992C65.9872 51.1463 65.6103 51.4733 65.1475 51.5116C64.9213 51.53 64.6991 51.5142 64.4888 51.414C64.2376 51.294 64.1093 51.0974 64.1014 50.8205C64.0961 50.6768 64.1213 50.5343 64.1702 50.3774Z" fill="#303133"/>
<path d="M51.7312 42.0039C52.1795 42.1463 52.4837 42.4286 52.6344 42.8347C52.6768 42.8308 52.7111 42.8018 52.7482 42.782C52.8751 42.7147 53.0074 42.6752 53.1528 42.6804C53.3988 42.6884 53.5641 42.8479 53.5786 43.0945C53.5826 43.1724 53.576 43.2502 53.5535 43.3385C53.6527 43.3333 53.7347 43.3214 53.818 43.3293C54.1936 43.3662 54.4713 43.5588 54.659 43.8753C54.9963 44.4437 54.9235 45.1598 54.5057 45.6319C54.3258 45.835 54.0983 45.9682 53.8484 46.0605C53.2718 46.2742 52.6794 46.3427 52.0685 46.2478C51.997 46.2372 51.964 46.2082 51.9389 46.1423C51.8357 45.868 51.8476 45.6003 51.9693 45.3365C52.0063 45.2561 52.0129 45.2508 52.083 45.2969C52.1491 45.3405 52.2179 45.3827 52.2721 45.4394C52.5194 45.6965 52.8183 45.7361 53.1489 45.6609C53.33 45.62 53.5046 45.5594 53.6659 45.4684C53.9476 45.3088 54.1023 45.0714 54.0798 44.7457C54.0587 44.4318 53.8762 44.2155 53.5958 44.0902C53.252 43.9373 52.895 43.932 52.5392 44.0494C52.2787 44.1364 52.1015 44.3197 51.9719 44.5544C51.9587 44.5782 51.9468 44.6006 51.9349 44.6243C51.845 44.805 51.8436 44.8063 51.6757 44.6824C51.4919 44.5479 51.3464 44.3791 51.2367 44.1799C51.2062 44.1258 51.2076 44.0916 51.2631 44.0494C51.394 43.9518 51.5104 43.837 51.6096 43.7078C51.8384 43.4097 51.9151 43.0721 51.878 42.7029C51.8555 42.4708 51.796 42.2466 51.7312 42.0039Z" fill="#303133"/>
<path d="M64.2529 52.8422C64.4155 52.887 64.5663 52.895 64.7197 52.8765C65.1203 52.8264 65.4655 52.6471 65.7855 52.4136C66.1584 52.1406 66.4679 51.8056 66.7204 51.4192C66.7443 51.3837 66.7601 51.3414 66.7971 51.3164C66.8197 51.3243 66.821 51.3401 66.8236 51.3586C66.9201 52.4571 66.2034 53.4911 65.1389 53.7904C64.3944 54.0001 63.63 53.7562 63.146 53.1561C62.8339 52.7697 62.8352 52.1169 63.1513 51.7318C63.3272 51.5169 63.5573 51.4232 63.831 51.4654C64.1563 51.5155 64.4116 51.6658 64.5187 52.0008C64.594 52.2368 64.5424 52.4518 64.4036 52.6497C64.3613 52.713 64.3097 52.771 64.2529 52.8422Z" fill="#303133"/>
<path d="M54.6734 41.0879C54.2872 40.7912 53.9143 40.4945 53.3959 40.5209C53.1314 40.5341 52.8894 40.6277 52.6514 40.7332C52.5998 40.7556 52.5496 40.7793 52.4795 40.811C52.5575 40.6105 52.6593 40.4497 52.7823 40.3019C53.0733 39.9525 53.4594 39.7823 53.8984 39.7059C54.2251 39.6478 54.5557 39.6505 54.8863 39.6386C55.1812 39.628 55.4761 39.6267 55.771 39.6214C55.7921 39.6214 55.8146 39.6175 55.8397 39.636C55.8397 39.7428 55.8027 39.8456 55.7749 39.9498C55.6546 40.4101 55.4946 40.8558 55.2499 41.266C55.041 41.6155 54.7792 41.9135 54.4062 42.0955C53.9487 42.3184 53.4726 42.3355 52.9939 42.1786C52.6898 42.0797 52.5416 41.8304 52.5774 41.5258C52.5879 41.4427 52.5959 41.4374 52.6765 41.4704C52.8551 41.5442 53.0349 41.6128 53.224 41.6616C53.5216 41.7381 53.7993 41.6999 54.0651 41.5495C54.2833 41.4242 54.475 41.266 54.6734 41.0879Z" fill="#303133"/>
<path d="M59.2123 56.5178C58.9531 56.742 58.7098 56.9648 58.411 57.1139C58.1676 57.2352 57.9097 57.2735 57.6413 57.251C57.2486 57.2181 56.869 57.1257 56.4908 57.0202C56.4022 56.9951 56.3308 57.0005 56.2528 57.0453C56.1298 57.1152 56.0187 57.2022 55.8984 57.2748C55.6061 57.4515 55.298 57.4898 54.974 57.3776C54.9529 57.371 54.933 57.3631 54.9132 57.3526C54.7082 57.251 54.687 57.1957 54.7598 56.9807C54.9013 56.5692 55.1618 56.2857 55.6022 56.1934C55.8296 56.1459 56.0571 56.163 56.2858 56.196C56.869 56.2804 57.4535 56.3635 58.0394 56.4254C58.4163 56.4651 58.7931 56.5046 59.1727 56.498C59.1806 56.4993 59.1886 56.5059 59.2123 56.5178Z" fill="#303133"/>
<path d="M61.8281 57.73C61.9419 57.6298 62.0358 57.5441 62.1323 57.4636C62.5448 57.1207 62.8662 56.708 63.0765 56.2135C63.1148 56.1224 63.173 56.0696 63.2656 56.0314C63.6954 55.8547 64.096 55.6266 64.4385 55.3087C64.6171 55.1426 64.7665 54.954 64.8749 54.7338C64.8829 54.7192 64.8935 54.7061 64.9094 54.6836C64.9755 54.7892 64.9953 54.9012 65.0178 55.0107C65.1341 55.5804 65.0059 56.0908 64.629 56.5352C64.3156 56.9071 63.9163 57.1577 63.4745 57.3476C63.0064 57.5493 62.5144 57.6641 62.0106 57.7287C61.9709 57.734 61.9313 57.7353 61.8916 57.7366C61.8797 57.7379 61.8678 57.7353 61.8281 57.73Z" fill="#303133"/>
<path d="M63.8318 61.5308C63.8266 61.5796 63.7908 61.5928 63.7644 61.6139C63.4179 61.8763 63.0688 62.1361 62.7223 62.3986C62.676 62.4342 62.6284 62.4579 62.5676 62.4619C61.8839 62.4988 61.3073 62.2707 60.8445 61.7668C60.6938 61.6033 60.7149 61.6297 60.863 61.515C61.2055 61.2538 61.5467 60.9914 61.8892 60.7303C61.9725 60.667 61.9738 60.6657 62.0479 60.7408C62.4592 61.1589 62.9564 61.4095 63.5356 61.5005C63.6335 61.5163 63.7353 61.5045 63.8318 61.5308Z" fill="#303133"/>
<path d="M61.9901 62.9376C61.8883 63.0127 61.7971 63.0813 61.7058 63.1486C61.4559 63.3358 61.206 63.5218 60.9573 63.7117C60.9058 63.7512 60.8528 63.771 60.7881 63.7684C60.1216 63.7499 59.5688 63.4941 59.143 62.9785C59.0795 62.902 59.0808 62.8993 59.1589 62.836C59.5159 62.5433 59.8823 62.2623 60.2485 61.9828C60.3305 61.9208 60.3332 61.9208 60.394 61.9933C60.8026 62.4852 61.321 62.7925 61.9505 62.9125C61.9597 62.9151 61.9663 62.9218 61.9901 62.9376Z" fill="#303133"/>
<path d="M54.2291 52.49C53.9355 52.6272 53.6618 52.755 53.388 52.8843C53.3338 52.9107 53.3113 52.883 53.2835 52.8421C53.1473 52.6377 53.0125 52.4319 52.8604 52.2381C52.6739 52.0007 52.4623 51.7937 52.1807 51.667C52.059 51.613 51.9373 51.58 51.7998 51.584C51.4388 51.5932 51.2351 51.3954 51.1267 51.0485C51.091 50.9351 51.128 50.8257 51.2206 50.7505C51.4467 50.5672 51.7059 50.4709 52.0021 50.5078C52.1754 50.529 52.3116 50.6265 52.4385 50.7386C52.5866 50.8705 52.7056 51.03 52.8286 51.1844C53.2108 51.6592 53.6459 52.0798 54.1484 52.4267C54.1709 52.4412 54.1907 52.4596 54.2291 52.49Z" fill="#303133"/>
<path d="M65.4552 60.2058C65.2635 60.3759 65.077 60.525 64.9117 60.6924C64.7054 60.9008 64.4568 60.9984 64.1725 61.0261C63.5086 61.0921 62.9281 60.9087 62.4414 60.4459C62.3555 60.3641 62.3568 60.3588 62.4454 60.2863C62.7575 60.0357 63.063 59.7772 63.3605 59.5108C63.4412 59.4382 63.4439 59.4382 63.5311 59.5161C63.904 59.8498 64.3351 60.0647 64.8284 60.1518C64.9805 60.1781 65.1325 60.1953 65.2872 60.1926C65.3362 60.1913 65.3838 60.1808 65.4552 60.2058Z" fill="#303133"/>
<path d="M50.2604 42.9119C50.021 42.8314 49.9404 42.6561 50.0448 42.4384C50.1202 42.2802 50.2379 42.1562 50.3701 42.0441C50.7629 41.7131 51.2019 41.4705 51.7044 41.3531C51.8288 41.3241 51.9544 41.3109 52.084 41.3425C52.0721 41.394 52.0245 41.3966 51.9927 41.4138C51.6899 41.5865 51.5392 41.8437 51.5418 42.1918C51.5444 42.4477 51.596 42.6983 51.6066 42.9528C51.6172 43.2271 51.5749 43.4869 51.399 43.7098C51.2892 43.8482 51.157 43.9537 50.9705 43.9089C50.7735 43.8627 50.6584 43.7203 50.5989 43.5331C50.5936 43.5159 50.5923 43.4988 50.591 43.4816C50.5791 43.3616 50.5883 43.3484 50.71 43.3484C50.8356 43.3471 50.9163 43.2825 50.9679 43.1757C51.0274 43.0477 51.0406 42.9119 51.0115 42.7761C50.9652 42.5532 50.7444 42.4516 50.5407 42.5571C50.4482 42.6046 50.3807 42.6798 50.3305 42.7708C50.3053 42.8183 50.2829 42.8657 50.2604 42.9119Z" fill="#303133"/>
<path d="M58.9006 53.2675C58.8186 53.4337 58.7102 53.5708 58.5977 53.704C58.2817 54.0746 57.9127 54.3726 57.4433 54.5296C57.0214 54.6707 56.6035 54.6523 56.1883 54.5059C56.1698 54.4993 56.1447 54.498 56.1367 54.4716C56.1486 54.4386 56.1804 54.4465 56.2028 54.44C56.4845 54.3648 56.7146 54.2118 56.8958 53.985C57.0135 53.8372 57.1351 53.6922 57.2515 53.5445C57.307 53.4746 57.3705 53.443 57.4657 53.4482C57.914 53.4667 58.3491 53.3796 58.7815 53.2741C58.8159 53.2649 58.8476 53.2464 58.9006 53.2675Z" fill="#303133"/>
<path d="M60.1455 57.7114C60.2579 57.6151 60.3505 57.5347 60.4443 57.4555C60.7168 57.2248 60.9707 56.9755 61.1836 56.6867C61.2153 56.6445 61.2445 56.6063 61.3079 56.6036C61.776 56.5825 62.2164 56.4467 62.6488 56.2792C62.6885 56.2634 62.7295 56.2515 62.7785 56.2344C62.7731 56.2594 62.7731 56.2739 62.7679 56.2832C62.5271 56.6564 62.2759 57.0217 61.9414 57.3223C61.5552 57.6679 61.0989 57.8011 60.5885 57.7734C60.451 57.7655 60.3108 57.7549 60.1455 57.7114Z" fill="#303133"/>
<path d="M58.4326 57.3892C58.7699 57.227 59.0105 56.9633 59.2631 56.7153C59.3226 56.6573 59.3729 56.5729 59.4443 56.5479C59.5144 56.5228 59.607 56.5584 59.6889 56.5651C60.0182 56.5914 60.3475 56.6111 60.6795 56.5927C60.7654 56.5874 60.8514 56.5848 60.9545 56.5795C60.9082 56.6784 60.85 56.743 60.7971 56.8103C60.6119 57.0424 60.4004 57.2455 60.1399 57.3932C59.7564 57.6081 59.3504 57.653 58.9259 57.5581C58.7593 57.5224 58.5953 57.4736 58.4326 57.3892Z" fill="#303133"/>
<path d="M56.9678 53.4508C56.7351 53.7344 56.4891 54.0047 56.1678 54.1973C55.8901 54.3634 55.6057 54.3819 55.3108 54.2513C55.1667 54.1867 55.0331 54.1076 54.9102 54.0021C54.9287 53.9902 54.9392 53.9797 54.9512 53.9757C55.3042 53.8833 55.5846 53.6777 55.8226 53.4113C55.8834 53.3426 55.939 53.3242 56.0276 53.3426C56.3198 53.4047 56.6161 53.4495 56.9163 53.4363C56.9321 53.435 56.9506 53.431 56.9678 53.4508Z" fill="#303133"/>
<path d="M55.6797 53.2723C55.4747 53.4358 55.2909 53.598 55.0727 53.714C54.8822 53.8156 54.6865 53.8169 54.4868 53.7404C54.2012 53.6309 53.9566 53.4516 53.7119 53.2815C53.7172 53.2261 53.7595 53.2235 53.7886 53.2103C54.0306 53.0942 54.2739 52.9834 54.5146 52.8661C54.5728 52.8384 54.6164 52.8423 54.672 52.8753C54.9232 53.0204 55.1851 53.1443 55.4694 53.2156C55.5329 53.2313 55.6003 53.2313 55.6797 53.2723Z" fill="#303133"/>
<circle cx="61.5" cy="91.5" r="5.5" fill="#303133"/>
<defs>
<filter id="filter0_d_1177_19544" x="0" y="0" width="122" height="122" filterUnits="userSpaceOnUse" color-interpolation-filters="sRGB">
<feFlood flood-opacity="0" result="BackgroundImageFix"/>
<feColorMatrix in="SourceAlpha" type="matrix" values="0 0 0 0 0 0 0 0 0 0 0 0 0 0 0 0 0 0 127 0" result="hardAlpha"/>
<feOffset dy="5"/>
<feGaussianBlur stdDeviation="12.5"/>
<feComposite in2="hardAlpha" operator="out"/>
<feColorMatrix type="matrix" values="0 0 0 0 0.14 0 0 0 0 0.149333 0 0 0 0 0.233333 0 0 0 0.05 0"/>
<feBlend mode="normal" in2="BackgroundImageFix" result="effect1_dropShadow_1177_19544"/>
<feBlend mode="normal" in="SourceGraphic" in2="effect1_dropShadow_1177_19544" result="shape"/>
</filter>
</defs>
</svg>
